<svg width="102" height="102" viewBox="0 0 102 102" fill="none" xmlns="http://www.w3.org/2000/svg">
<path d="M85.903 20.4319H33.7237C32.3093 20.4275 30.9111 20.7335 29.6279 21.3283C28.3446 21.9231 27.2075 22.7922 26.2968 23.8744L8.6699 44.7206C7.1879 46.4774 6.375 48.7016 6.375 51C6.375 53.2983 7.1879 55.5226 8.6699 57.2794L26.2968 78.1256C27.2075 79.2078 28.3446 80.0769 29.6279 80.6717C30.9111 81.2665 32.3093 81.5725 33.7237 81.5681H85.903C88.4799 81.5633 90.9499 80.5375 92.7721 78.7153C94.5942 76.8932 95.6201 74.4232 95.6249 71.8463V30.1537C95.6201 27.5768 94.5942 25.1068 92.7721 23.2847C90.9499 21.4625 88.4799 20.4367 85.903 20.4319ZM71.0493 59.16C71.6465 59.7618 71.9817 60.5753 71.9817 61.4231C71.9817 62.271 71.6465 63.0845 71.0493 63.6862C70.4431 64.2759 69.6318 64.6073 68.7862 64.6106C67.9417 64.6013 67.1325 64.2707 66.523 63.6862L58.363 55.5262L50.203 63.6862C49.9058 63.9813 49.5534 64.215 49.1659 64.3739C48.7784 64.5328 48.3634 64.6139 47.9446 64.6124C47.5257 64.6109 47.1113 64.527 46.7249 64.3653C46.3386 64.2037 45.9878 63.9675 45.6927 63.6703C45.3976 63.3731 45.1639 63.0207 45.005 62.6332C44.8461 62.2457 44.7651 61.8307 44.7666 61.4118C44.768 60.993 44.852 60.5786 45.0136 60.1922C45.1753 59.8059 45.4115 59.4551 45.7087 59.16L53.8687 51L45.7087 42.84C45.1115 42.2382 44.7764 41.4247 44.7764 40.5769C44.7764 39.729 45.1115 38.9156 45.7087 38.3137C46.0035 38.0182 46.3538 37.7837 46.7394 37.6238C47.125 37.4638 47.5384 37.3814 47.9558 37.3814C48.3733 37.3814 48.7867 37.4638 49.1723 37.6238C49.5579 37.7837 49.9082 38.0182 50.203 38.3137L58.363 46.4737L66.523 38.3137C66.8198 38.0146 67.1727 37.7769 67.5615 37.6145C67.9504 37.452 68.3675 37.3679 68.7889 37.3671C69.2103 37.3662 69.6277 37.4486 70.0172 37.6094C70.4067 37.7703 70.7606 38.0065 71.0585 38.3045C71.3565 38.6025 71.5927 38.9564 71.7536 39.3458C71.9144 39.7353 71.9968 40.1528 71.996 40.5742C71.9951 40.9956 71.911 41.4127 71.7486 41.8015C71.5861 42.1903 71.3485 42.5432 71.0493 42.84L62.8893 51L71.0493 59.16Z" fill="#323232"/>
</svg>
