<svg width="75" height="75" viewBox="0 0 75 75" fill="none" xmlns="http://www.w3.org/2000/svg">
<g clip-path="url(#clip0_0_1976)">
<path opacity="0.981" fill-rule="evenodd" clip-rule="evenodd" d="M5.21729 14.8185C5.21729 14.5269 5.21729 14.2354 5.21729 13.9438C6.12641 13.0716 7.16768 12.3844 8.34108 11.8821C11.4025 10.7003 14.568 9.95055 17.8374 9.63298C24.692 8.85474 31.4811 9.22959 38.2045 10.7575C40.3386 11.2628 42.2961 12.1374 44.0772 13.3815C44.6819 13.7831 44.8277 14.3037 44.5146 14.9434C43.612 15.8641 42.55 16.5513 41.3283 17.0051C38.4619 18.0861 35.5048 18.7942 32.4567 19.1293C25.7423 19.9339 19.0783 19.6422 12.4645 18.2546C10.2383 17.7629 8.15575 16.9299 6.2169 15.7556C5.81802 15.5022 5.48482 15.1898 5.21729 14.8185Z" fill="#323232"/>
<path opacity="0.98" fill-rule="evenodd" clip-rule="evenodd" d="M5.21729 19.6915C8.17928 21.1511 11.3031 22.13 14.5887 22.6279C21.7179 23.7421 28.8401 23.7005 35.9554 22.5029C38.9678 21.9778 41.8417 21.0406 44.577 19.6915C44.702 21.9392 44.7436 24.1883 44.702 26.4389C41.6733 27.1829 38.9244 28.4949 36.4552 30.3749C28.7098 31.9518 20.9628 31.9518 13.2142 30.3749C10.976 29.9428 8.8518 29.1931 6.84166 28.1258C6.24357 27.7565 5.70211 27.3192 5.21729 26.8138C5.21729 24.4397 5.21729 22.0656 5.21729 19.6915Z" fill="#323232"/>
<path opacity="0.98" fill-rule="evenodd" clip-rule="evenodd" d="M69.1925 46.306C69.1925 47.7639 69.1925 49.2215 69.1925 50.6794C68.2731 56.8723 65.1493 61.5996 59.8211 64.8614C52.8585 68.4903 46.0695 68.1987 39.454 63.9867C33.3276 59.3168 30.7245 53.1317 31.6445 45.4314C33.1417 37.9365 37.4942 32.9176 44.702 30.3747C52.6448 28.3141 59.3713 30.2925 64.8817 36.3099C67.2446 39.2447 68.6816 42.5766 69.1925 46.306ZM48.4505 34.3107C49.7417 34.3107 51.0329 34.3107 52.324 34.3107C52.3033 35.3528 52.324 36.394 52.3865 37.4345C56.2289 38.8261 57.9575 41.575 57.572 45.6813C56.2809 45.6813 54.9896 45.6813 53.6985 45.6813C54.2383 42.9212 53.1345 41.3801 50.3873 41.0581C47.8774 41.1915 46.7946 42.4827 47.1385 44.9316C47.5313 45.556 48.0936 45.9517 48.8254 46.1186C50.0713 46.4261 51.3208 46.7176 52.5739 46.9933C56.7221 48.3126 58.2422 51.0825 57.1347 55.3026C56.2009 57.4655 54.5974 58.8399 52.324 59.426C52.324 60.4672 52.324 61.5085 52.324 62.5498C51.0329 62.5498 49.7417 62.5498 48.4505 62.5498C48.4505 61.5085 48.4505 60.4672 48.4505 59.426C45.7645 58.76 44.0359 57.094 43.265 54.4279C43.103 53.3516 43.0405 52.2686 43.0776 51.1792C44.3687 51.1792 45.66 51.1792 46.9511 51.1792C46.4849 54.5654 47.9426 56.0856 51.3244 55.7399C53.2698 55.1687 53.9988 53.8984 53.5111 51.9289C53.0231 51.2986 52.3775 50.9029 51.5743 50.7418C49.9658 50.4202 48.3832 50.0037 46.8262 49.4923C43.8748 48.109 42.6878 45.7974 43.265 42.5575C44.0035 39.9259 45.6904 38.2182 48.3256 37.4345C48.4503 36.3965 48.4919 35.3553 48.4505 34.3107Z" fill="#323232"/>
<path opacity="0.98" fill-rule="evenodd" clip-rule="evenodd" d="M5.21729 31.6869C8.83102 33.3506 12.6212 34.4127 16.5879 34.8731C21.517 35.5199 26.4526 35.5824 31.3946 35.0606C31.5405 35.1022 31.6862 35.1439 31.832 35.1855C30.0594 37.6689 28.8099 40.3971 28.0834 43.3698C21.9753 43.7669 15.9776 43.1422 10.0904 41.4956C8.62718 40.995 7.25271 40.3285 5.96699 39.4963C5.68784 39.2386 5.43794 38.9679 5.21729 38.6842C5.21729 36.3517 5.21729 34.0193 5.21729 31.6869Z" fill="#323232"/>
<path opacity="0.978" fill-rule="evenodd" clip-rule="evenodd" d="M5.21729 43.5571C7.89863 44.9298 10.7309 45.8669 13.714 46.3685C18.3025 47.1782 22.9257 47.4905 27.5836 47.3056C27.4353 49.9928 27.7686 52.6168 28.5832 55.1776C22.6734 55.7055 16.8423 55.2265 11.09 53.7406C9.35377 53.2736 7.7294 52.5655 6.2169 51.6164C5.81802 51.363 5.48482 51.0507 5.21729 50.6793C5.21729 48.3052 5.21729 45.9311 5.21729 43.5571Z" fill="#323232"/>
<path opacity="0.979" fill-rule="evenodd" clip-rule="evenodd" d="M5.21729 55.5527C9.00952 57.3549 13.008 58.4587 17.2126 58.8639C21.5252 59.3491 25.8361 59.4116 30.1451 59.0513C31.6593 61.8164 33.6378 64.2113 36.0803 66.236C34.3666 66.6775 32.6173 66.969 30.8324 67.1107C24.9182 67.647 19.0454 67.3554 13.2142 66.236C10.9916 65.759 8.86747 65.0093 6.84166 63.9869C6.24357 63.6177 5.70211 63.1803 5.21729 62.6749C5.21729 60.3008 5.21729 57.9268 5.21729 55.5527Z" fill="#323232"/>
</g>
<defs>
<clipPath id="clip0_0_1976">
<rect width="63.9752" height="63.9752" fill="white" transform="translate(5.27881 6.38397)"/>
</clipPath>
</defs>
</svg>
