<svg width="72" height="72" viewBox="0 0 72 72" fill="none" xmlns="http://www.w3.org/2000/svg">
<path fill-rule="evenodd" clip-rule="evenodd" d="M0.00292969 36.0005C0.00292969 33.5152 2.01767 31.5005 4.50293 31.5005H67.5029C69.9883 31.5005 72.0029 33.5152 72.0029 36.0005C72.0029 38.4859 69.9883 40.5005 67.5029 40.5005H4.50293C2.01767 40.5005 0.00292969 38.4859 0.00292969 36.0005Z" fill="#323232"/>
<path d="M36 13.5013C38.4853 13.5013 40.5 11.4866 40.5 9.00134C40.5 6.51608 38.4853 4.50134 36 4.50134C33.5147 4.50134 31.5 6.51608 31.5 9.00134C31.5 11.4866 33.5147 13.5013 36 13.5013Z" fill="#323232"/>
<path fill-rule="evenodd" clip-rule="evenodd" d="M27.0029 9.00061C27.0029 4.03005 31.0322 0.000610352 36.0029 0.000610352C40.9736 0.000610352 45.0029 4.03005 45.0029 9.00061C45.0029 13.9712 40.9736 18.0006 36.0029 18.0006C31.0322 18.0006 27.0029 13.9712 27.0029 9.00061Z" fill="#323232"/>
<path d="M36 67.5013C38.4853 67.5013 40.5 65.4867 40.5 63.0013C40.5 60.516 38.4853 58.5013 36 58.5013C33.5147 58.5013 31.5 60.516 31.5 63.0013C31.5 65.4867 33.5147 67.5013 36 67.5013Z" fill="#323232"/>
<path fill-rule="evenodd" clip-rule="evenodd" d="M27.0029 63.0006C27.0029 58.0299 31.0322 54.0006 36.0029 54.0006C40.9736 54.0006 45.0029 58.0299 45.0029 63.0006C45.0029 67.9713 40.9736 72.0006 36.0029 72.0006C31.0322 72.0006 27.0029 67.9713 27.0029 63.0006Z" fill="#323232"/>
</svg>
