<svg width="70" height="70" viewBox="0 0 70 70" fill="none" xmlns="http://www.w3.org/2000/svg">
<path opacity="0.972" fill-rule="evenodd" clip-rule="evenodd" d="M24.9436 9.04582C22.6224 8.75382 21.3091 9.80547 21.0039 12.2008C21.0339 12.7352 21.1512 13.2488 21.3557 13.7416C27.449 20.2432 33.5929 26.6999 39.7878 33.1117C40.632 34.3835 40.632 35.6552 39.7878 36.927C33.5929 43.3388 27.449 49.7955 21.3557 56.2971C20.5204 58.9596 21.4115 60.5249 24.029 60.9928C24.7145 61.0317 25.3477 60.8605 25.9285 60.4792C33.4562 52.6285 40.9838 44.7777 48.5114 36.927C49.1681 35.6552 49.1681 34.3835 48.5114 33.1117C40.9838 25.2609 33.4562 17.4102 25.9285 9.55942C25.5873 9.38148 25.2589 9.21028 24.9436 9.04582Z" fill="#BBBBBB"/>
</svg>
