<svg width="75" height="75" viewBox="0 0 75 75" fill="none" xmlns="http://www.w3.org/2000/svg">
<g clip-path="url(#clip0_0_1939)">
<path d="M57.1304 3.99725H17.4165C14.0947 3.99725 11.3921 6.69982 11.3921 10.0217V66.5177C11.3921 69.8396 14.0947 72.5421 17.4165 72.5421H57.1304C60.4523 72.5421 63.1549 69.8396 63.1549 66.5177V10.0217C63.1549 6.69982 60.4522 3.99725 57.1304 3.99725ZM19.571 15.8253C19.571 14.9417 20.294 14.2187 21.1775 14.2187H53.9068C54.7904 14.2187 55.5133 14.9417 55.5133 15.8253V21.95C55.5135 22.8336 54.7905 23.5565 53.9069 23.5565H21.1775C20.294 23.5565 19.571 22.8336 19.571 21.95V15.8253ZM39.1514 37.7871H35.3958C34.2866 37.7871 33.3876 36.888 33.3876 35.7789V33.0501C33.3876 31.9411 34.2868 31.042 35.3958 31.042H39.1514C40.2605 31.042 41.1596 31.9411 41.1596 33.0501V35.7789C41.1596 36.888 40.2605 37.7871 39.1514 37.7871ZM41.1596 45.9855V48.7144C41.1596 49.8234 40.2605 50.7225 39.1514 50.7225H35.3958C34.2868 50.7225 33.3876 49.8234 33.3876 48.7144V45.9855C33.3876 44.8764 34.2866 43.9774 35.3958 43.9774H39.1514C40.2605 43.9774 41.1596 44.8765 41.1596 45.9855ZM26.8053 61.6498C26.8053 62.7588 25.9062 63.658 24.7972 63.658H21.0415C19.9325 63.658 19.0334 62.7588 19.0334 61.6498V58.921C19.0334 57.812 19.9325 56.9128 21.0415 56.9128H24.7972C25.9062 56.9128 26.8053 57.8118 26.8053 58.921V61.6498ZM26.8053 48.7144C26.8053 49.8234 25.9062 50.7225 24.7972 50.7225H21.0415C19.9325 50.7225 19.0334 49.8234 19.0334 48.7144V45.9855C19.0334 44.8765 19.9325 43.9774 21.0415 43.9774H24.7972C25.9062 43.9774 26.8053 44.8765 26.8053 45.9855V48.7144ZM26.8053 35.7789C26.8053 36.888 25.9062 37.7871 24.7972 37.7871H21.0415C19.9325 37.7871 19.0334 36.888 19.0334 35.7789V33.0501C19.0334 31.9411 19.9325 31.042 21.0415 31.042H24.7972C25.9062 31.042 26.8053 31.9411 26.8053 33.0501V35.7789ZM55.5135 61.6498C55.5135 62.7588 54.6143 63.658 53.5053 63.658H35.3957C34.2866 63.658 33.3875 62.7588 33.3875 61.6498V58.921C33.3875 57.8118 34.2865 56.9128 35.3957 56.9128H53.5053C54.6143 56.9128 55.5135 57.812 55.5135 58.921V61.6498ZM55.5135 48.7144C55.5135 49.8234 54.6143 50.7225 53.5053 50.7225H49.7497C48.6406 50.7225 47.7415 49.8234 47.7415 48.7144V45.9855C47.7415 44.8765 48.6406 43.9774 49.7497 43.9774H53.5053C54.6143 43.9774 55.5135 44.8765 55.5135 45.9855V48.7144ZM55.5135 35.7789C55.5135 36.888 54.6143 37.7871 53.5053 37.7871H49.7497C48.6406 37.7871 47.7415 36.888 47.7415 35.7789V33.0501C47.7415 31.9411 48.6406 31.042 49.7497 31.042H53.5053C54.6143 31.042 55.5135 31.9411 55.5135 33.0501V35.7789Z" fill="#323232"/>
</g>
<defs>
<clipPath id="clip0_0_1939">
<rect width="68.5449" height="68.5449" fill="white" transform="translate(2.99365 3.99701)"/>
</clipPath>
</defs>
</svg>
