<svg width="84" height="84" viewBox="0 0 84 84" fill="none" xmlns="http://www.w3.org/2000/svg">
<path d="M41.9987 78.2567C34.8278 78.2567 27.818 76.1303 21.8557 72.1463C15.8933 68.1624 11.2462 62.4999 8.50207 55.8749C5.7579 49.2499 5.0399 41.9599 6.43886 34.9269C7.83783 27.8938 11.2909 21.4335 16.3615 16.363C21.4321 11.2924 27.8923 7.83929 34.9254 6.44033C41.9585 5.04136 49.2485 5.75936 55.8735 8.50353C62.4985 11.2477 68.161 15.8948 72.1449 21.8571C76.1288 27.8195 78.2552 34.8293 78.2552 42.0002C78.2441 51.6126 74.4206 60.8281 67.6236 67.6251C60.8266 74.4221 51.6111 78.2456 41.9987 78.2567ZM41.9987 12.3062C36.1258 12.3062 30.3848 14.0477 25.5016 17.3105C20.6184 20.5733 16.8125 25.2109 14.565 30.6368C12.3176 36.0626 11.7295 42.0331 12.8753 47.7932C14.021 53.5533 16.8491 58.8442 21.0019 62.997C25.1547 67.1498 30.4456 69.9779 36.2057 71.1236C41.9658 72.2694 47.9362 71.6813 53.3621 69.4338C58.788 67.1864 63.4255 63.3804 66.6884 58.4973C69.9512 53.6141 71.6927 47.8731 71.6927 42.0002C71.6837 34.1276 68.5523 26.5801 62.9856 21.0133C57.4188 15.4466 49.8713 12.3152 41.9987 12.3062Z" fill="#323232"/>
<path d="M42 45.2813C41.1298 45.2813 40.2952 44.9356 39.6798 44.3202C39.0645 43.7049 38.7188 42.8703 38.7188 42V22.1708C38.7188 21.3005 39.0645 20.4659 39.6798 19.8506C40.2952 19.2352 41.1298 18.8895 42 18.8895C42.8702 18.8895 43.7048 19.2352 44.3202 19.8506C44.9356 20.4659 45.2812 21.3005 45.2812 22.1708V42C45.2812 42.8703 44.9356 43.7049 44.3202 44.3202C43.7048 44.9356 42.8702 45.2813 42 45.2813Z" fill="#323232"/>
<path d="M56.1098 59.3906C55.6788 59.3913 55.2519 59.3067 54.8537 59.1419C54.4554 58.977 54.0937 58.735 53.7893 58.4299L39.6799 44.3205C39.0645 43.7051 38.7188 42.8704 38.7188 42C38.7188 41.1296 39.0645 40.2949 39.6799 39.6795C40.2954 39.0641 41.1301 38.7183 42.0004 38.7183C42.8708 38.7183 43.7055 39.0641 44.3209 39.6795L58.4303 53.7889C58.8893 54.2478 59.2019 54.8325 59.3286 55.4691C59.4552 56.1057 59.3903 56.7655 59.1419 57.3651C58.8935 57.9648 58.4728 58.4773 57.9331 58.8378C57.3934 59.1984 56.7589 59.3908 56.1098 59.3906Z" fill="#323232"/>
</svg>
