<svg width="75" height="75" viewBox="0 0 75 75" fill="none" xmlns="http://www.w3.org/2000/svg">
<g clip-path="url(#clip0_0_1993)">
<path opacity="0.961" fill-rule="evenodd" clip-rule="evenodd" d="M20.4268 8.35049C22.0958 8.35049 23.7648 8.35049 25.4338 8.35049C32.1265 10.1908 35.768 14.5909 36.3581 21.5507C35.5889 29.7547 31.1129 34.2307 22.9303 34.9786C14.7948 34.2398 10.3189 29.8018 9.50244 21.6645C10.0394 14.6442 13.6808 10.2062 20.4268 8.35049ZM22.7027 14.9506C27.9992 15.8053 30.0854 18.8399 28.9614 24.0542C26.577 28.131 23.2769 29.0793 19.0612 26.8991C15.9224 23.9555 15.5811 20.7313 18.0371 17.2265C19.3446 15.9205 20.8998 15.1619 22.7027 14.9506Z" fill="#323232"/>
<path opacity="0.959" fill-rule="evenodd" clip-rule="evenodd" d="M50.2424 9.48846C54.2398 9.65567 55.5674 11.6281 54.2253 15.4058C45.2735 31.489 36.3214 47.5719 27.3696 63.655C25.2385 66.0713 23.1143 66.0713 20.9971 63.655C20.2211 61.9897 20.3728 60.3966 21.4522 58.8756C30.3283 42.9443 39.2043 27.0129 48.0803 11.0816C48.6559 10.3112 49.3767 9.78018 50.2424 9.48846Z" fill="#323232"/>
<path opacity="0.961" fill-rule="evenodd" clip-rule="evenodd" d="M55.0212 66.6137C53.3523 66.6137 51.6831 66.6137 50.0142 66.6137C43.3214 64.7734 39.68 60.3732 39.0898 53.4135C39.8591 45.2095 44.3351 40.7335 52.5177 39.9856C60.6531 40.7244 65.1292 45.1624 65.9455 53.2997C65.4086 60.3199 61.7672 64.7579 55.0212 66.6137ZM51.6073 46.8133C55.9768 46.8211 58.4803 48.9832 59.1178 53.2997C58.7163 57.3046 56.5164 59.5425 52.5177 60.0136C47.3655 59.0368 45.355 56.0023 46.4865 50.91C47.5396 48.6992 49.2465 47.3336 51.6073 46.8133Z" fill="#323232"/>
</g>
<defs>
<clipPath id="clip0_0_1993">
<rect width="58.2632" height="58.2632" fill="white" transform="translate(8.70605 8.46423)"/>
</clipPath>
</defs>
</svg>
