<svg width="75" height="75" viewBox="0 0 75 75" fill="none" xmlns="http://www.w3.org/2000/svg">
<g clip-path="url(#clip0_0_1947)">
<path opacity="0.958" fill-rule="evenodd" clip-rule="evenodd" d="M45.2758 3.38C45.8902 3.38 46.5045 3.38 47.1189 3.38C47.955 3.84 48.7448 4.38852 49.4885 5.02557C50.5644 5.58518 51.7053 5.8046 52.9113 5.6838C53.8694 5.44498 54.7909 5.11587 55.6758 4.69646C56.4657 4.78423 56.9045 5.22304 56.9923 6.01291C56.7056 8.3438 55.9375 10.494 54.6885 12.4635C53.5508 14.173 51.9711 15.1822 49.9493 15.4914C49.8396 15.4694 49.7298 15.4475 49.6201 15.4256C50.6619 13.6607 51.4737 11.7957 52.0556 9.83063C52.1855 8.77607 51.7248 8.27144 50.6733 8.31671C50.4382 8.41999 50.2407 8.57358 50.0809 8.77747C49.3728 11.1809 48.2976 13.397 46.8556 15.4256C46.4168 15.5133 45.9779 15.5133 45.5391 15.4256C44.1409 13.4846 43.1098 11.3564 42.4455 9.04076C41.8944 8.11419 41.2362 8.02642 40.4708 8.77747C40.3493 8.97947 40.2835 9.19887 40.2733 9.4357C40.825 11.5299 41.6589 13.5046 42.7746 15.3597C41.3074 15.4629 40.0349 15.0021 38.9569 13.9775C36.6902 11.6115 35.5274 8.78109 35.4683 5.48633C35.7239 5.02842 36.1189 4.76513 36.6531 4.69646C37.3645 4.9967 38.0885 5.28194 38.8252 5.55216C40.796 5.97753 42.5073 5.49484 43.9594 4.10405C44.3895 3.82369 44.8283 3.58234 45.2758 3.38Z" fill="#323232"/>
<path opacity="0.933" fill-rule="evenodd" clip-rule="evenodd" d="M59.2317 6.14453C62.0735 6.99126 63.6533 8.90012 63.9709 11.8711C63.8883 13.4405 63.2739 14.7569 62.1279 15.8205C63.9695 16.3318 65.6809 17.1217 67.2621 18.1901C67.7714 18.6553 68.2322 19.1599 68.6443 19.704C68.8397 21.1329 68.2473 21.6815 66.8671 21.3496C65.8084 20.2057 64.536 19.3719 63.0494 18.8483C61.5483 18.3726 60.0124 18.0654 58.4418 17.9268C57.3558 17.0383 56.2149 16.2265 55.019 15.4914C55.1307 15.2951 55.3062 15.2073 55.5456 15.2281C57.286 15.5164 58.8657 15.1434 60.2849 14.1091C61.8587 12.5048 61.8148 10.9251 60.1532 9.36985C59.7471 9.11187 59.3302 8.87053 58.9026 8.6458C58.9512 7.80869 59.061 6.97492 59.2317 6.14453Z" fill="#323232"/>
<path opacity="0.956" fill-rule="evenodd" clip-rule="evenodd" d="M21.3159 8.1193C23.4219 8.00407 25.4844 8.24543 27.5033 8.84335C28.102 9.08792 28.6506 9.41703 29.1488 9.83069C29.5494 10.6856 29.352 11.3658 28.5564 11.8712C24.7587 13.4857 20.941 13.5296 17.1033 12.0028C15.8195 11.2357 15.7318 10.3581 16.84 9.36993C18.2685 8.66223 19.7604 8.24536 21.3159 8.1193Z" fill="#323232"/>
<path opacity="0.983" fill-rule="evenodd" clip-rule="evenodd" d="M71.4745 46.9547C71.4745 48.5782 71.4745 50.202 71.4745 51.8255C70.7108 57.5702 67.5513 61.2781 61.996 62.9496C60.617 63.3283 59.2128 63.5478 57.7834 63.6078C50.2797 63.6736 42.7759 63.6956 35.272 63.6736C35.294 58.9781 35.272 54.2827 35.2062 49.5876C34.7192 48.486 33.9513 47.6303 32.9024 47.0205C30.214 45.7934 27.4057 45.3327 24.4771 45.6382C24.4991 39.4068 24.4771 33.1756 24.4112 26.9446C23.9223 25.446 22.935 24.4149 21.4492 23.8509C19.722 23.1325 17.9228 22.7594 16.0518 22.7319C16.0518 19.7919 16.0518 16.8517 16.0518 13.9117C19.2596 15.3633 22.5947 15.7363 26.0568 15.0306C27.1618 14.8013 28.215 14.4283 29.2163 13.9117C29.3698 16.7191 29.3918 19.5275 29.2821 22.337C28.5743 23.0884 27.916 23.8783 27.3074 24.7066C26.538 25.7553 26.7574 26.5012 27.9657 26.9446C28.3115 26.8374 28.6186 26.6619 28.8872 26.418C31.7353 22.5164 35.2459 19.3569 39.4188 16.9395C40.0339 17.2323 40.6701 17.4737 41.3277 17.6635C40.4166 18.5302 39.5609 19.4298 38.7606 20.3623C38.7443 21.0945 39.0954 21.5772 39.8138 21.8104C39.9979 21.7147 40.1954 21.6489 40.4062 21.6129C41.7665 20.3403 43.1269 19.0678 44.4872 17.7952C44.6574 17.7307 44.833 17.7087 45.0138 17.7294C44.9919 19.0026 45.0138 20.2753 45.0796 21.5471C45.4344 22.5476 46.0706 22.789 46.9884 22.2711C47.1148 22.0843 47.2245 21.8869 47.3176 21.6787C47.3834 20.3631 47.4052 19.0466 47.3834 17.7294C47.5641 17.7087 47.7397 17.7307 47.91 17.7952C49.2703 19.0678 50.6307 20.3403 51.991 21.6129C52.5323 21.8511 53.015 21.7414 53.4391 21.2838C53.7881 20.7896 53.7662 20.3069 53.3732 19.8357C52.5656 19.1598 51.7976 18.4358 51.0695 17.6635C51.7591 17.3602 52.4612 17.1409 53.1758 17.0053C60.2367 21.3473 65.3051 27.381 68.3808 35.1066C69.9104 38.9435 70.9416 42.8929 71.4745 46.9547ZM46.0669 27.4711C46.5456 27.5068 46.9187 27.7261 47.1859 28.1294C47.3582 28.7305 47.4241 29.3448 47.3834 29.9724C50.5287 30.2433 52.0865 31.9547 52.0568 35.1066C51.7223 35.7081 51.2176 35.9055 50.5429 35.699C49.9951 35.2202 49.7318 34.6058 49.753 33.8559C49.3082 32.8199 48.5183 32.2713 47.3834 32.2104C47.3834 33.8779 47.3834 35.5453 47.3834 37.2129C50.2893 37.42 51.8691 38.9779 52.1226 41.8863C51.8483 44.7717 50.2685 46.3733 47.3834 46.6914C47.4626 47.4186 47.331 48.0987 46.9884 48.7319C46.0651 49.2465 45.4288 49.0052 45.0796 48.0078C45.014 47.5712 44.992 47.1324 45.0138 46.6914C41.8909 46.3117 40.3331 44.5565 40.3403 41.4256C41.1093 40.518 41.8115 40.5618 42.4467 41.5572C42.4754 43.2746 43.3311 44.1962 45.0138 44.3218C45.0138 42.6982 45.0138 41.0745 45.0138 39.4509C42.1581 39.1405 40.5784 37.5607 40.2745 34.7116C40.4958 31.7696 42.0756 30.1899 45.0138 29.9724C44.9731 29.3448 45.0389 28.7305 45.2112 28.1294C45.4488 27.8232 45.7341 27.6038 46.0669 27.4711ZM67.5251 49.1926C68.042 49.133 68.4588 49.3085 68.7758 49.7192C69.0926 53.3759 67.842 56.3819 65.0239 58.7369C62.4642 60.4739 59.6556 61.1761 56.5986 60.8433C55.9635 60.3189 55.9197 59.7484 56.4669 59.1319C56.6424 59.0441 56.818 58.9564 56.9935 58.8686C59.5433 58.8788 61.8691 58.1767 63.9707 56.7623C65.8705 54.8688 66.814 52.565 66.8011 49.8509C66.9862 49.5555 67.2275 49.3361 67.5251 49.1926Z" fill="#323232"/>
<path opacity="0.955" fill-rule="evenodd" clip-rule="evenodd" d="M14.0768 24.9698C16.0401 24.8637 17.9709 25.0611 19.8692 25.5622C20.4909 25.7196 21.0615 25.9829 21.5806 26.352C22.4575 27.2367 22.3697 28.0266 21.3173 28.7217C19.4846 29.57 17.5538 29.9868 15.5249 29.9723C13.3887 30.0042 11.3702 29.5434 9.46919 28.59C8.55629 27.7541 8.60017 26.9642 9.60083 26.2204C11.0325 25.5272 12.5245 25.1104 14.0768 24.9698Z" fill="#323232"/>
<path opacity="0.979" fill-rule="evenodd" clip-rule="evenodd" d="M8.80893 30.7623C13.2849 32.6931 17.7608 32.6931 22.2368 30.7623C22.2368 35.8965 22.2368 41.0306 22.2368 46.1648C20.1663 46.4851 18.6085 47.5383 17.5634 49.3243C17.4147 52.5659 17.3051 55.8132 17.2342 59.0661C14.601 57.7935 11.8365 57.3547 8.94058 57.7496C8.80893 48.7543 8.76506 39.7586 8.80893 30.7623Z" fill="#323232"/>
<path opacity="0.927" fill-rule="evenodd" clip-rule="evenodd" d="M44.3541 32.2103C44.5735 32.2103 44.7929 32.2103 45.0123 32.2103C45.0123 33.8338 45.0123 35.4576 45.0123 37.0811C43.1664 36.9232 42.3545 35.9138 42.5769 34.0533C42.8424 33.1078 43.4348 32.4936 44.3541 32.2103Z" fill="#323232"/>
<path opacity="0.925" fill-rule="evenodd" clip-rule="evenodd" d="M47.3828 39.4508C48.9282 39.5261 49.7619 40.3378 49.8841 41.8862C49.7582 43.4384 48.9244 44.2502 47.3828 44.3217C47.3828 42.6981 47.3828 41.0744 47.3828 39.4508Z" fill="#323232"/>
<path opacity="0.959" fill-rule="evenodd" clip-rule="evenodd" d="M24.4739 47.8762C26.4708 47.7766 28.4455 47.9302 30.398 48.337C31.499 48.5189 32.3547 49.0675 32.965 49.9826C33.0471 50.7181 32.7618 51.2666 32.1093 51.6281C29.6236 52.6791 27.0345 53.03 24.3423 52.6813C22.9388 52.5719 21.6223 52.177 20.3929 51.4965C19.3397 50.7066 19.3397 49.9167 20.3929 49.1269C21.6905 48.4521 23.0508 48.0351 24.4739 47.8762Z" fill="#323232"/>
<path opacity="0.975" fill-rule="evenodd" clip-rule="evenodd" d="M19.6057 53.537C24.0606 55.6357 28.5145 55.6357 32.9677 53.537C33.0555 57.7935 33.0555 62.0501 32.9677 66.3066C32.2261 67.172 31.2826 67.7206 30.1373 67.9522C26.9445 68.7393 23.8289 68.5198 20.7905 67.2939C20.4225 67.0579 20.0934 66.7726 19.8032 66.4382C19.6075 62.1492 19.5417 57.8489 19.6057 53.537Z" fill="#323232"/>
<path opacity="0.956" fill-rule="evenodd" clip-rule="evenodd" d="M4.06982 62.8838C4.06982 62.5327 4.06982 62.1817 4.06982 61.8306C4.82191 61.0588 5.74343 60.5542 6.83438 60.3167C9.85664 59.6195 12.8406 59.7511 15.7863 60.7116C17.8926 61.8086 17.8926 62.9057 15.7863 64.0027C12.0879 65.2409 8.44568 65.1092 4.8597 63.6078C4.52761 63.4288 4.26432 63.1875 4.06982 62.8838Z" fill="#323232"/>
<path opacity="0.956" fill-rule="evenodd" clip-rule="evenodd" d="M4.06982 65.6483C8.45621 67.579 12.8444 67.579 17.2344 65.6483C17.2782 66.1529 17.3222 66.6576 17.366 67.1622C17.6595 68.4184 17.2207 69.2961 16.0496 69.7951C14.9723 70.2499 13.8752 70.579 12.7584 70.7825C11.3981 70.7825 10.0377 70.7825 8.67742 70.7825C7.3477 70.5915 6.07514 70.1747 4.8597 69.5319C4.61349 69.2633 4.3502 69.022 4.06982 68.8078C4.06982 67.7546 4.06982 66.7015 4.06982 65.6483Z" fill="#323232"/>
</g>
<defs>
<clipPath id="clip0_0_1947">
<rect width="67.4025" height="67.4025" fill="white" transform="translate(4.13623 3.4458)"/>
</clipPath>
</defs>
</svg>
