<svg width="75" height="76" viewBox="0 0 75 76" fill="none" xmlns="http://www.w3.org/2000/svg">
<path opacity="0.994" fill-rule="evenodd" clip-rule="evenodd" d="M52.4148 3.15139C57.1456 2.70493 60.3123 4.65656 61.9145 9.00626C62.1174 10.4726 62.1899 11.9482 62.132 13.4331C64.9174 13.7505 66.0294 15.2737 65.4678 18.0028C67.0053 19.9315 67.1745 21.9782 65.9754 24.1433C64.53 25.85 62.7171 26.3974 60.5367 25.7855C59.8654 25.5026 59.237 25.1456 58.6512 24.7145C58.2772 24.8867 57.9146 25.077 57.5635 25.2857C57.4911 25.9981 57.4669 26.7121 57.491 27.4277C60.2575 28.2642 63.0131 29.1449 65.7578 30.0695C66.8067 30.4835 67.5077 31.2214 67.8608 32.283C67.9333 34.7577 67.9576 37.2329 67.9333 39.7087C69.2878 39.685 70.6415 39.7087 71.9943 39.7801C72.2601 39.8515 72.4294 40.0181 72.5019 40.2799C72.5986 42.9456 72.5986 45.6111 72.5019 48.2768C72.4294 48.5385 72.2601 48.7052 71.9943 48.7766C71.4162 48.8478 70.836 48.8717 70.2539 48.848C70.2781 56.2738 70.2539 63.6995 70.1814 71.1251C70.1271 71.2559 70.0546 71.375 69.9638 71.4821C59.2431 71.6483 48.5107 71.7197 37.7665 71.6963C27.0223 71.7197 16.2898 71.6483 5.5691 71.4821C5.47833 71.375 5.40582 71.2559 5.35155 71.1251C5.27903 63.6995 5.25485 56.2738 5.27903 48.848C4.6969 48.8717 4.11676 48.8478 3.53863 48.7766C3.27274 48.7052 3.10353 48.5385 3.03102 48.2768C2.93432 45.6111 2.93432 42.9456 3.03102 40.2799C3.10353 40.0181 3.27274 39.8515 3.53863 39.7801C4.89141 39.7087 6.24505 39.685 7.59956 39.7087C7.5754 36.8522 7.59956 33.9962 7.67208 31.1406C7.74459 30.8788 7.9138 30.7121 8.17969 30.6407C8.75782 30.5695 9.33796 30.5456 9.92009 30.5693C9.89593 26.9513 9.92009 23.3337 9.99261 19.7164C10.2143 19.2857 10.5769 19.0954 11.0804 19.1452C11.8808 19.3484 12.6543 19.634 13.4009 20.002C14.1475 19.634 14.921 19.3484 15.7214 19.1452C16.5219 19.3484 17.2953 19.634 18.0419 20.002C18.6386 19.7797 19.2187 19.5179 19.7823 19.2166C20.3253 19.0839 20.833 19.1553 21.3052 19.4308C21.5201 23.1309 21.5926 26.8438 21.5227 30.5693C23.4565 30.5693 25.3903 30.5693 27.3241 30.5693C27.3241 29.8078 27.3241 29.0461 27.3241 28.2845C26.356 28.3082 25.389 28.2845 24.4234 28.2131C24.1576 28.1417 23.9883 27.9751 23.9158 27.7133C23.8191 25.0476 23.8191 22.3821 23.9158 19.7164C23.9883 19.4546 24.1576 19.288 24.4234 19.2166C28.6777 19.1213 32.9321 19.1213 37.1863 19.2166C37.4522 19.288 37.6214 19.4546 37.6939 19.7164C37.7907 22.3821 37.7907 25.0476 37.6939 27.7133C37.6214 27.9751 37.4522 28.1417 37.1863 28.2131C36.2207 28.2845 35.2538 28.3082 34.2857 28.2845C34.2857 29.0461 34.2857 29.8078 34.2857 30.5693C35.2538 30.5456 36.2207 30.5693 37.1863 30.6407C37.4522 30.7121 37.6214 30.8788 37.6939 31.1406C37.7665 33.9962 37.7907 36.8522 37.7665 39.7087C38.5399 39.7087 39.3135 39.7087 40.087 39.7087C40.0628 37.2329 40.087 34.7577 40.1595 32.283C40.5127 31.2214 41.2136 30.4835 42.2625 30.0695C45.0072 29.1449 47.7629 28.2642 50.5294 27.4277C50.5534 26.7121 50.5292 25.9981 50.4569 25.2857C48.3885 24.2244 46.9624 22.606 46.1784 20.4304C42.7681 19.9036 41.6803 18.0472 42.9151 14.8611C43.6526 13.8673 44.6436 13.3913 45.8883 13.4331C45.2146 8.18098 47.3901 4.75374 52.4148 3.15139ZM51.6896 12.4335C54.3894 13.0445 57.0725 13.7109 59.739 14.4327C59.9217 16.3648 59.7767 18.2688 59.3039 20.1448C57.6876 23.1888 55.198 24.2121 51.8347 23.2151C49.6139 22.1695 48.4294 20.4321 48.2814 18.0028C48.1607 16.715 48.1849 15.4298 48.3539 14.1471C49.4975 13.6082 50.6094 13.0369 51.6896 12.4335ZM45.4532 15.8608C45.5982 15.8608 45.7433 15.8608 45.8883 15.8608C45.8883 16.5272 45.8883 17.1935 45.8883 17.86C45.0338 17.7509 44.7195 17.2748 44.9456 16.432C45.0457 16.1678 45.2148 15.9773 45.4532 15.8608ZM62.132 15.8608C63.1306 16.0705 63.3966 16.6417 62.9297 17.5744C62.7 17.7687 62.434 17.864 62.132 17.86C62.132 17.1935 62.132 16.5272 62.132 15.8608ZM26.1638 21.43C29.2578 21.43 32.3519 21.43 35.4459 21.43C35.4459 22.9533 35.4459 24.4764 35.4459 25.9997C32.3519 25.9997 29.2578 25.9997 26.1638 25.9997C26.1638 24.4764 26.1638 22.9533 26.1638 21.43ZM15.4313 21.7156C16.1498 21.8546 16.8267 22.1163 17.4618 22.501C18.0234 22.6283 18.5551 22.5569 19.0572 22.2868C19.2022 25.0461 19.2505 27.8068 19.2022 30.5693C16.8817 30.5693 14.5612 30.5693 12.2406 30.5693C12.1923 27.8068 12.2407 25.0461 12.3857 22.2868C12.8877 22.5569 13.4195 22.6283 13.981 22.501C14.4968 22.2714 14.9802 22.0097 15.4313 21.7156ZM52.8499 25.9997C53.6234 25.9997 54.397 25.9997 55.1704 25.9997C55.4904 27.8841 55.1036 29.5977 54.0102 31.1406C52.9168 29.5977 52.53 27.8841 52.8499 25.9997ZM29.6446 28.2845C30.4181 28.2845 31.1917 28.2845 31.9651 28.2845C31.9651 29.0461 31.9651 29.8078 31.9651 30.5693C31.1917 30.5693 30.4181 30.5693 29.6446 30.5693C29.6446 29.8078 29.6446 29.0461 29.6446 28.2845ZM5.27903 41.9935C26.9373 41.9935 48.5956 41.9935 70.2539 41.9935C70.2539 43.5168 70.2539 45.0399 70.2539 46.5632C48.5956 46.5632 26.9373 46.5632 5.27903 46.5632C5.27903 45.0399 5.27903 43.5168 5.27903 41.9935ZM36.6062 52.2752C37.3797 52.2752 38.1533 52.2752 38.9267 52.2752C38.9028 52.7536 38.927 53.2296 38.9992 53.7032C40.3753 54.319 41.0763 55.3662 41.1022 56.8449C40.377 56.8449 39.6519 56.8449 38.9267 56.8449C38.9763 56.0369 38.5897 55.6562 37.7665 55.7025C36.9445 55.6549 36.5579 56.0356 36.6062 56.8449C36.5923 57.1913 36.6889 57.5008 36.8963 57.7731C37.8394 57.9833 38.7579 58.2689 39.6519 58.6299C41.1985 59.9281 41.5128 61.4751 40.5946 63.271C40.147 63.8075 39.6153 64.2359 38.9992 64.5562C38.927 65.0299 38.9028 65.5058 38.9267 65.9842C38.1533 65.9842 37.3797 65.9842 36.6062 65.9842C36.6301 65.5058 36.6059 65.0299 36.5337 64.5562C35.1576 63.9404 34.4567 62.8933 34.4307 61.4145C35.1559 61.4145 35.881 61.4145 36.6062 61.4145C36.5566 62.2225 36.9432 62.6032 37.7665 62.557C38.5884 62.6045 38.975 62.2238 38.9267 61.4145C38.9406 61.0681 38.844 60.7587 38.6367 60.4863C37.6935 60.2761 36.775 59.9905 35.881 59.6295C34.3344 58.3313 34.0201 56.7843 34.9383 54.9885C35.3859 54.452 35.9176 54.0236 36.5337 53.7032C36.6059 53.2296 36.6301 52.7536 36.6062 52.2752Z" fill="#323232"/>
<path fill-rule="evenodd" clip-rule="evenodd" d="M50.5288 15.7229C51.3023 15.7229 52.0759 15.7229 52.8493 15.7229C52.8493 16.4845 52.8493 17.2462 52.8493 18.0077C52.0759 18.0077 51.3023 18.0077 50.5288 18.0077C50.5288 17.2462 50.5288 16.4845 50.5288 15.7229Z" fill="#323232"/>
<path fill-rule="evenodd" clip-rule="evenodd" d="M55.1685 15.7229C55.9419 15.7229 56.7155 15.7229 57.489 15.7229C57.489 16.4845 57.489 17.2462 57.489 18.0077C56.7155 18.0077 55.9419 18.0077 55.1685 18.0077C55.1685 17.2462 55.1685 16.4845 55.1685 15.7229Z" fill="#323232"/>
<path fill-rule="evenodd" clip-rule="evenodd" d="M52.8477 20.2927C53.6211 20.2927 54.3947 20.2927 55.1682 20.2927C55.1682 21.0542 55.1682 21.8159 55.1682 22.5775C54.3947 22.5775 53.6211 22.5775 52.8477 22.5775C52.8477 21.8159 52.8477 21.0542 52.8477 20.2927Z" fill="#323232"/>
</svg>
