<svg width="84" height="84" viewBox="0 0 84 84" fill="none" xmlns="http://www.w3.org/2000/svg">
<path d="M17.5 35H24.5C31.5 35 35 31.5 35 24.5V17.5C35 10.5 31.5 7 24.5 7H17.5C10.5 7 7 10.5 7 17.5V24.5C7 31.5 10.5 35 17.5 35Z" stroke="#292D32" stroke-width="5.25" stroke-miterlimit="10" stroke-linecap="round" stroke-linejoin="round"/>
<path d="M59.5 35H66.5C73.5 35 77 31.5 77 24.5V17.5C77 10.5 73.5 7 66.5 7H59.5C52.5 7 49 10.5 49 17.5V24.5C49 31.5 52.5 35 59.5 35Z" stroke="#292D32" stroke-width="5.25" stroke-miterlimit="10" stroke-linecap="round" stroke-linejoin="round"/>
<path d="M59.5 77H66.5C73.5 77 77 73.5 77 66.5V59.5C77 52.5 73.5 49 66.5 49H59.5C52.5 49 49 52.5 49 59.5V66.5C49 73.5 52.5 77 59.5 77Z" stroke="#292D32" stroke-width="5.25" stroke-miterlimit="10" stroke-linecap="round" stroke-linejoin="round"/>
<path d="M17.5 77H24.5C31.5 77 35 73.5 35 66.5V59.5C35 52.5 31.5 49 24.5 49H17.5C10.5 49 7 52.5 7 59.5V66.5C7 73.5 10.5 77 17.5 77Z" stroke="#292D32" stroke-width="5.25" stroke-miterlimit="10" stroke-linecap="round" stroke-linejoin="round"/>
</svg>
