<svg width="75" height="75" viewBox="0 0 75 75" fill="none" xmlns="http://www.w3.org/2000/svg">
<g clip-path="url(#clip0_0_2055)">
<path opacity="0.968" fill-rule="evenodd" clip-rule="evenodd" d="M63.3545 -0.0732422C63.9404 -0.0732422 64.5263 -0.0732422 65.1123 -0.0732422C66.2187 0.378177 66.8291 1.20826 66.9433 2.41699C67.041 7.88574 67.041 13.3545 66.9433 18.8232C66.9067 19.702 66.5405 20.4101 65.8447 20.9473C60.2512 22.9094 54.636 24.8137 48.999 26.6602C46.8616 27.0334 45.6408 26.1545 45.3369 24.0234C45.4325 22.9039 45.9696 22.0737 46.9482 21.5332C50.9787 20.2223 54.9827 18.855 58.9599 17.4316C50.4309 8.91475 40.3235 6.22919 28.6377 9.375C17.3469 13.4399 10.5843 21.3746 8.34959 33.1787C8.17722 34.8851 8.03074 36.5941 7.91013 38.3057C7.20991 39.913 6.01362 40.4745 4.32127 39.9902C2.84891 39.2918 2.26297 38.1199 2.56346 36.4746C3.27519 23.5235 9.13457 13.7091 20.1416 7.03125C30.2935 1.68063 40.6939 1.14351 51.3428 5.41992C55.0525 7.11441 58.3971 9.33609 61.3769 12.085C61.4257 8.71582 61.4746 5.34668 61.5234 1.97754C61.8096 0.984372 62.4199 0.300779 63.3545 -0.0732422Z" fill="#323232"/>
<path opacity="0.968" fill-rule="evenodd" clip-rule="evenodd" d="M11.499 74.9267C10.9131 74.9267 10.3272 74.9267 9.74121 74.9267C8.63479 74.4753 8.02443 73.6453 7.91016 72.4365C7.8125 66.9678 7.8125 61.499 7.91016 56.0303C7.94674 55.1515 8.31295 54.4434 9.00879 53.9062C14.6023 51.9441 20.2175 50.0398 25.8545 48.1933C27.9918 47.8201 29.2127 48.699 29.5166 50.8301C29.421 51.9496 28.8839 52.7798 27.9053 53.3203C23.8748 54.6312 19.8708 55.9985 15.8936 57.4219C24.4226 65.9387 34.53 68.6242 46.2158 65.4785C57.5065 61.4136 64.2693 53.4789 66.5039 41.6748C66.6763 39.9684 66.8228 38.2594 66.9434 36.5478C67.6436 34.9405 68.8399 34.379 70.5322 34.8633C72.0045 35.5617 72.5905 36.7336 72.29 38.3789C71.5783 51.33 65.7189 61.1445 54.7119 67.8222C44.56 73.1729 34.1596 73.71 23.5107 69.4336C19.801 67.739 16.4564 65.5175 13.4766 62.7685C13.4277 66.1377 13.3789 69.5068 13.3301 72.876C13.0439 73.8691 12.4335 74.5528 11.499 74.9267Z" fill="#323232"/>
</g>
<defs>
<clipPath id="clip0_0_2055">
<rect width="75" height="75" fill="white"/>
</clipPath>
</defs>
</svg>
