<svg width="86" height="86" viewBox="0 0 86 86" fill="none" xmlns="http://www.w3.org/2000/svg">
<g clip-path="url(#clip0_0_2430)">
<path opacity="0.973" fill-rule="evenodd" clip-rule="evenodd" d="M85.916 15.873C85.916 16.7129 85.916 17.5527 85.916 18.3926C85.7136 18.8518 85.4617 19.2998 85.1602 19.7363C67.6074 37.2891 50.0547 54.8418 32.502 72.3945C30.8223 73.4023 29.1426 73.4023 27.4629 72.3945C18.5325 63.4641 9.60222 54.5339 0.671875 45.6035C0.370364 45.167 0.118412 44.719 -0.0839844 44.2598C-0.0839844 43.4199 -0.0839844 42.5801 -0.0839844 41.7402C1.51757 38.6221 3.86913 37.9223 6.9707 39.6406C14.6156 47.3134 22.2861 54.956 29.9824 62.5684C46.2452 46.3896 62.482 30.1806 78.6934 13.9414C81.8114 12.0047 84.2189 12.6486 85.916 15.873Z" fill="#323232"/>
</g>
<defs>
<clipPath id="clip0_0_2430">
<rect width="86" height="86" fill="white"/>
</clipPath>
</defs>
</svg>
